<?xml version="1.0" standalone="no"?>
<!DOCTYPE svg PUBLIC "-//W3C//DTD SVG 20010904//EN"
 "http://www.w3.org/TR/2001/REC-SVG-20010904/DTD/svg10.dtd">
<svg version="1.0" xmlns="http://www.w3.org/2000/svg"
 width="300.000000pt" height="300.000000pt" viewBox="0 0 300.000000 300.000000"
 preserveAspectRatio="xMidYMid meet">
<metadata>
Created by potrace 1.10, written by Peter Selinger 2001-2011
</metadata>
<g transform="translate(0.000000,300.000000) scale(0.100000,-0.100000)"
fill="#000000" stroke="none">
<path d="M499 1904 c-60 -18 -133 -83 -166 -148 -35 -67 -38 -169 -7 -236 24
-51 251 -360 265 -360 12 0 220 280 254 343 35 63 42 137 21 211 -24 81 -108
167 -185 190 -66 19 -120 19 -182 0z m192 -38 c65 -28 133 -108 145 -172 9
-41 7 -120 -2 -135 -13 -22 -22 -4 -23 47 0 31 -3 65 -6 75 -9 29 -164 157
-198 165 -24 5 -41 -2 -98 -41 -71 -49 -129 -106 -129 -129 0 -7 9 -21 19 -30
16 -15 20 -34 23 -112 2 -52 1 -94 -2 -94 -10 1 -57 76 -68 109 -17 48 -15
135 3 179 21 49 80 110 130 133 49 23 158 25 206 5z m0 -118 l89 -71 0 -78 c0
-43 -5 -89 -11 -102 -13 -30 -59 -57 -95 -57 l-27 0 34 23 c25 17 36 33 42 62
20 95 -44 165 -150 165 l-53 0 0 -125 0 -125 -34 0 -34 0 5 115 5 114 -25 -2
c-14 -1 -27 3 -28 8 -3 12 161 143 180 144 7 1 54 -31 102 -71z m-71 -149 c0
-24 -4 -29 -25 -29 -22 0 -25 4 -25 34 0 30 2 33 25 28 20 -3 25 -10 25 -33z
m34 15 c9 -3 16 -16 16 -29 0 -18 -4 -22 -20 -18 -13 3 -20 14 -20 29 0 26 1
27 24 18z m-34 -83 c0 -23 -5 -30 -25 -33 -23 -5 -25 -2 -25 28 0 30 3 34 25
34 21 0 25 -5 25 -29z m50 0 c0 -10 -7 -22 -16 -25 -23 -9 -24 -8 -24 19 0 18
5 25 20 25 13 0 20 -7 20 -19z m-30 -76 c0 -21 28 -37 65 -37 19 0 35 -3 35
-7 0 -10 -130 -183 -144 -193 -10 -7 -18 0 -54 47 -14 19 -99 140 -105 152 -5
8 0 9 22 0 37 -14 77 2 90 36 8 20 14 22 50 19 24 -3 41 -9 41 -17z"/>
<path d="M1017 1568 l2 -162 83 3 c94 3 130 18 165 71 17 24 23 47 23 89 0
110 -63 160 -200 161 l-75 0 2 -162z m164 92 c25 -14 49 -62 49 -101 0 -48
-56 -99 -109 -99 l-41 0 0 105 0 105 41 0 c22 0 49 -5 60 -10z"/>
<path d="M1394 1626 c-17 -8 -39 -24 -48 -37 -20 -30 -21 -108 0 -137 34 -49
109 -66 164 -37 81 42 78 176 -5 211 -42 17 -71 17 -111 0z m96 -56 c41 -41
14 -120 -40 -120 -54 0 -81 79 -40 120 11 11 29 20 40 20 11 0 29 -9 40 -20z"/>
<path d="M1694 1625 c-22 -17 -38 -20 -29 -5 4 6 -7 10 -27 10 l-33 0 3 -115
3 -115 30 0 29 0 0 85 c0 81 1 86 25 97 43 19 55 -2 55 -98 l0 -84 30 0 30 0
0 79 c0 81 12 111 45 111 34 0 47 -31 43 -109 l-3 -76 34 -2 33 -3 -4 96 c-3
91 -5 97 -31 120 -34 29 -66 31 -100 4 l-26 -21 -21 21 c-24 24 -58 26 -86 5z"/>
<path d="M2065 1633 c-22 -5 -65 -42 -65 -55 0 -17 49 -20 66 -3 24 23 68 16
72 -12 3 -21 -1 -23 -38 -23 -94 0 -140 -61 -85 -115 28 -29 85 -34 109 -10
17 18 27 19 24 4 -2 -6 9 -13 25 -16 l27 -4 0 91 c0 50 -4 100 -10 110 -16 30
-74 45 -125 33z m75 -141 c0 -35 -39 -58 -71 -42 -37 21 -18 55 36 63 17 2 31
5 33 6 1 0 2 -12 2 -27z"/>
<path d="M2330 1620 c-16 -16 -20 -17 -20 -5 0 10 -10 15 -30 15 l-30 0 0
-115 0 -115 30 0 29 0 3 82 c3 79 4 83 31 98 27 14 29 14 48 -10 17 -20 20
-36 17 -95 l-3 -70 30 0 29 0 -2 95 c-3 87 -5 97 -28 118 -31 27 -77 29 -104
2z"/>
<path d="M2574 1634 c-28 -6 -68 -49 -59 -63 10 -17 52 -13 59 5 9 25 70 15
74 -12 3 -19 -3 -22 -52 -26 -65 -5 -96 -28 -96 -69 0 -54 97 -94 130 -54 10
12 15 13 21 4 4 -7 19 -14 33 -16 l26 -4 0 90 c0 79 -3 93 -22 116 -23 26 -71
38 -114 29z m56 -176 c-27 -22 -31 -22 -56 -4 -27 21 -8 49 37 56 28 4 35 2
37 -15 2 -11 -5 -27 -18 -37z"/>
</g>
</svg>
